<svg xmlns="http://www.w3.org/2000/svg" viewBox="0 0 36.44 31.33"><defs><style>.cls-1{fill:#f05161;}</style></defs><g id="Layer_2" data-name="Layer 2"><g id="OBJECTS"><path class="cls-1" d="M35.88,15.24a10.76,10.76,0,0,1-1.44,2.9,11.82,11.82,0,0,1-2.27,2.43L19.37,30.91a1.79,1.79,0,0,1-1.15.42,1.87,1.87,0,0,1-1.15-.4L4.27,20.57A11.35,11.35,0,0,1,.56,15.24,12,12,0,0,1,3.74,2.92,10.71,10.71,0,0,1,15.23.82a8.17,8.17,0,0,1,3,2.21,7.89,7.89,0,0,1,3-2.21A10.68,10.68,0,0,1,32.7,2.92,12,12,0,0,1,35.88,15.24Z"/></g></g></svg>