<svg xmlns="http://www.w3.org/2000/svg" viewBox="0 0 30.78 30.94"><defs><style>.cls-1{fill:#4d4d4f;}</style></defs><g id="Layer_2" data-name="Layer 2"><g id="OBJECTS"><path class="cls-1" d="M30.36,11.77a15.42,15.42,0,1,0-9.13,17.85,2,2,0,0,1,1.34-.1l4.3,1.32a2.28,2.28,0,0,0,2.92-2.61l-.88-4.66a1.93,1.93,0,0,1,.21-1.25h0A15.37,15.37,0,0,0,30.36,11.77ZM27.52,21.5h0a3.71,3.71,0,0,0-.38,2.4L28,28.57a.48.48,0,0,1-.62.55L23.09,27.8a3.58,3.58,0,0,0-1-.15,3.89,3.89,0,0,0-1.51.31,13.64,13.64,0,1,1,7-6.46Z"/></g></g></svg>