<svg xmlns="http://www.w3.org/2000/svg" viewBox="0 0 36.44 31.33"><defs><style>.cls-1{fill:#4d4d4f;}</style></defs><g id="Layer_2" data-name="Layer 2"><g id="OBJECTS"><path class="cls-1" d="M18.22,31.33a1.82,1.82,0,0,1-1.15-.41L4.27,20.57A11.3,11.3,0,0,1,.56,15.24,12,12,0,0,1,3.75,2.92,10.71,10.71,0,0,1,15.23.81a8.33,8.33,0,0,1,3,2.22,8.11,8.11,0,0,1,3-2.22A10.7,10.7,0,0,1,32.7,2.92a12,12,0,0,1,3.18,12.32h0a11.35,11.35,0,0,1-3.71,5.33L19.38,30.92A1.86,1.86,0,0,1,18.22,31.33ZM11.05,1.89a8.72,8.72,0,0,0-6,2.4A10.1,10.1,0,0,0,2.35,14.67a9.42,9.42,0,0,0,3.11,4.44L18.24,29.45,31,19.11a9.44,9.44,0,0,0,3.1-4.44h0A10.06,10.06,0,0,0,31.41,4.29,8.85,8.85,0,0,0,21.9,2.57,7.23,7.23,0,0,0,19,5.08l-.76,1-.75-1a7.37,7.37,0,0,0-2.92-2.51A9.45,9.45,0,0,0,11.05,1.89Z"/></g></g></svg>