<svg xmlns="http://www.w3.org/2000/svg" viewBox="0 0 26.9 30.42"><defs><style>.cls-1{fill:#4d4d4f;}</style></defs><g id="Layer_2" data-name="Layer 2"><g id="OBJECTS"><path class="cls-1" d="M24.19,0H2.71A2.72,2.72,0,0,0,0,2.71V28.44a1.94,1.94,0,0,0,1.15,1.79,1.9,1.9,0,0,0,.83.19,1.94,1.94,0,0,0,1.28-.48L13.45,21.2l10.19,8.74h0a2,2,0,0,0,3.26-1.5V2.71A2.72,2.72,0,0,0,24.19,0ZM25.3,28.44a.37.37,0,0,1-.61.28h0L14,19.54a.79.79,0,0,0-1,0L2.22,28.72a.37.37,0,0,1-.4.06.35.35,0,0,1-.22-.34V2.71A1.11,1.11,0,0,1,2.71,1.6H24.19A1.11,1.11,0,0,1,25.3,2.71Z"/></g></g></svg>